<svg width="1200" height="900" viewBox="0 0 1200 900" fill="none" xmlns="http://www.w3.org/2000/svg">
  <defs>
    <linearGradient id="n8nCore" x1="0" y1="0" x2="1" y2="1">
      <stop stop-color="#2A2D3A"/>
      <stop offset="1" stop-color="#171923"/>
    </linearGradient>
    <linearGradient id="flow" x1="0" y1="0" x2="1" y2="0">
      <stop stop-color="#C9D2DF"/>
      <stop offset="0.5" stop-color="#FF7A66"/>
      <stop offset="1" stop-color="#DCE5F2"/>
    </linearGradient>
  </defs>

  <rect width="1200" height="900" fill="#ECEBE7"/>

  <rect x="72" y="286" width="228" height="136" rx="28" fill="white" stroke="#D8D5CF" stroke-width="1.5"/>
  <text x="112" y="336" fill="#7A879A" font-family="'IBM Plex Sans', 'Segoe UI', sans-serif" font-size="18" letter-spacing="0.16em">TRIGGER</text>
  <text x="112" y="384" fill="#121D2C" font-family="'IBM Plex Sans', 'Segoe UI', sans-serif" font-size="34" font-weight="600">Source Files</text>

  <path d="M300 354H392" stroke="url(#flow)" stroke-width="5" stroke-linecap="round"/>
  <circle cx="346" cy="354" r="9" fill="#FF6D5A"/>

  <rect x="392" y="298" width="120" height="112" rx="24" fill="#2B2F3C" stroke="#FF6D5A" stroke-width="3"/>
  <circle cx="452" cy="346" r="14" fill="#FF6D5A"/>
  <path d="M443 346H461" stroke="#FFF5F2" stroke-width="3.5" stroke-linecap="round"/>
  <path d="M452 337V355" stroke="#FFF5F2" stroke-width="3.5" stroke-linecap="round"/>
  <text x="418" y="438" fill="#5A6980" font-family="'IBM Plex Sans', 'Segoe UI', sans-serif" font-size="18" font-weight="600">Trigger</text>

  <path d="M512 354H604" stroke="url(#flow)" stroke-width="5" stroke-linecap="round"/>

  <rect x="604" y="228" width="228" height="268" rx="34" fill="url(#n8nCore)" stroke="#FF6D5A" stroke-width="2.5"/>
  <rect x="632" y="256" width="172" height="42" rx="21" fill="#3A3140"/>
  <text x="718" y="284" text-anchor="middle" fill="#FFD8CF" font-family="'IBM Plex Sans', 'Segoe UI', sans-serif" font-size="20" font-weight="600">n8n</text>
  <rect x="652" y="324" width="52" height="52" rx="13" fill="#FF6D5A"/>
  <rect x="714" y="324" width="52" height="52" rx="13" fill="#3D4354" stroke="#FF8D7E" stroke-width="2"/>
  <rect x="683" y="386" width="52" height="52" rx="13" fill="#3D4354" stroke="#8AB7FF" stroke-width="2"/>
  <path d="M678 350H714" stroke="#FFB4A8" stroke-width="3" stroke-linecap="round"/>
  <path d="M740 350V386" stroke="#FFB4A8" stroke-width="3" stroke-linecap="round"/>
  <path d="M708 372H683" stroke="#9FC0FF" stroke-width="3" stroke-linecap="round"/>
  <text x="718" y="478" text-anchor="middle" fill="#D8E5F7" font-family="'IBM Plex Sans', 'Segoe UI', sans-serif" font-size="28" font-weight="600">Automate</text>

  <path d="M832 354H924" stroke="url(#flow)" stroke-width="5" stroke-linecap="round"/>
  <circle cx="878" cy="354" r="9" fill="#FF6D5A"/>

  <rect x="924" y="268" width="236" height="104" rx="24" fill="white" stroke="#D8D5CF" stroke-width="1.5"/>
  <text x="964" y="306" fill="#7A879A" font-family="'IBM Plex Sans', 'Segoe UI', sans-serif" font-size="17" letter-spacing="0.15em">OUTPUT</text>
  <text x="964" y="346" fill="#121D2C" font-family="'IBM Plex Sans', 'Segoe UI', sans-serif" font-size="30" font-weight="600">Social Copy</text>

  <rect x="924" y="388" width="236" height="104" rx="24" fill="#FFF3F0" stroke="#FFD8CF" stroke-width="1.5"/>
  <text x="964" y="426" fill="#7A879A" font-family="'IBM Plex Sans', 'Segoe UI', sans-serif" font-size="17" letter-spacing="0.15em">OUTPUT</text>
  <text x="964" y="466" fill="#121D2C" font-family="'IBM Plex Sans', 'Segoe UI', sans-serif" font-size="30" font-weight="600">Web Draft</text>

  <text x="600" y="612" text-anchor="middle" fill="#8A8F98" font-family="'IBM Plex Sans', 'Segoe UI', sans-serif" font-size="22" letter-spacing="0.04em">Trigger → n8n → AI → publish</text>
</svg>
